<?xml version="1.0" standalone="no"?>
<!DOCTYPE svg PUBLIC "-//W3C//DTD SVG 20010904//EN"
 "http://www.w3.org/TR/2001/REC-SVG-20010904/DTD/svg10.dtd">
<svg version="1.0" xmlns="http://www.w3.org/2000/svg"
 width="562.000000pt" height="562.000000pt" viewBox="0 0 562.000000 562.000000"
 preserveAspectRatio="xMidYMid meet">
<metadata>
Created by potrace 1.14, written by Peter Selinger 2001-2017
</metadata>
<g transform="translate(0.000000,562.000000) scale(0.100000,-0.100000)"
fill="#000000" stroke="none">
<path d="M2620 5614 c-662 -60 -1241 -331 -1700 -793 -519 -524 -820 -1263
-820 -2011 0 -754 305 -1495 830 -2020 414 -414 922 -671 1505 -762 200 -31
550 -31 750 0 1016 158 1834 850 2176 1842 209 605 209 1275 0 1880 -341 988
-1168 1690 -2168 1840 -133 20 -463 34 -573 24z m438 -265 c444 -48 885 -231
1242 -516 108 -86 286 -263 374 -373 319 -398 513 -880 566 -1404 16 -152 8
-523 -15 -666 -89 -574 -359 -1095 -775 -1493 -382 -366 -858 -594 -1364 -653
-169 -20 -461 -14 -626 11 -770 120 -1450 624 -1809 1342 -194 390 -291 829
-278 1263 22 720 286 1339 773 1810 397 384 838 601 1374 675 118 16 408 19
538 4z"/>
<path d="M2818 5243 c7 -3 16 -2 19 1 4 3 -2 6 -13 5 -11 0 -14 -3 -6 -6z"/>
<path d="M2720 4664 c-116 -17 -176 -30 -244 -55 -210 -76 -379 -211 -512
-410 -52 -78 -124 -213 -124 -233 0 -3 17 3 38 12 34 16 112 17 937 17 843 0
902 -1 933 -18 18 -10 32 -13 32 -7 0 20 -72 155 -126 237 -133 201 -353 362
-575 422 -119 32 -272 47 -359 35z"/>
<path d="M1939 3860 c-57 -10 -96 -30 -130 -67 -26 -27 -69 -92 -69 -104 0 -3
24 2 53 12 49 17 112 18 1018 19 827 0 973 -2 1015 -15 67 -20 67 -20 45 23
-26 51 -68 91 -121 116 -45 21 -53 21 -905 22 -473 1 -881 -2 -906 -6z"/>
<path d="M2630 3590 c-437 -3 -804 -9 -815 -14 -58 -26 -112 -85 -129 -143
l-7 -21 62 19 c58 18 105 19 1077 19 560 0 1033 -4 1052 -9 19 -4 45 -11 58
-15 l23 -8 -20 39 c-25 50 -88 108 -132 121 -51 15 -292 18 -1169 12z"/>
<path d="M2463 3323 c9 -2 25 -2 35 0 9 3 1 5 -18 5 -19 0 -27 -2 -17 -5z"/>
<path d="M2618 3323 c39 -2 105 -2 145 0 39 1 7 3 -73 3 -80 0 -112 -2 -72 -3z"/>
<path d="M2878 3323 c12 -2 32 -2 45 0 12 2 2 4 -23 4 -25 0 -35 -2 -22 -4z"/>
<path d="M1800 1880 l0 -1290 96 -45 c54 -25 100 -45 104 -45 4 0 7 484 6
1075 l-1 1074 75 76 c41 41 78 75 82 75 5 0 8 -531 8 -1180 l0 -1179 43 -11
c23 -6 60 -16 82 -21 22 -6 48 -12 57 -15 17 -5 18 61 20 1200 l3 1205 70 71
c38 38 73 70 77 70 5 0 8 -580 8 -1289 l0 -1288 68 -6 c37 -4 82 -7 100 -7
l32 0 0 1221 0 1220 37 85 c20 46 41 83 46 81 6 -2 27 -41 47 -88 l37 -84 2
-1215 c2 -668 4 -1216 6 -1218 2 -2 45 0 96 5 l92 8 -2 734 c-1 404 1 984 5
1289 l7 556 72 -75 72 -75 6 -559 c4 -307 7 -847 7 -1200 l0 -643 100 25 100
25 0 1179 c0 686 4 1179 9 1179 5 0 41 -35 80 -79 l71 -79 0 -1071 c0 -589 2
-1071 4 -1071 2 0 47 20 100 45 l96 44 0 1291 0 1290 -1010 0 -1010 0 0 -1290z"/>
<path d="M1641 3114 c0 -11 3 -14 6 -6 3 7 2 16 -1 19 -3 4 -6 -2 -5 -13z"/>
<path d="M483 2800 c0 -41 2 -58 4 -37 2 20 2 54 0 75 -2 20 -4 3 -4 -38z"/>
<path d="M5131 2634 c0 -11 3 -14 6 -6 3 7 2 16 -1 19 -3 4 -6 -2 -5 -13z"/>
<path d="M501 2474 c0 -11 3 -14 6 -6 3 7 2 16 -1 19 -3 4 -6 -2 -5 -13z"/>
<path d="M5111 2444 c0 -11 3 -14 6 -6 3 7 2 16 -1 19 -3 4 -6 -2 -5 -13z"/>
<path d="M1641 714 c0 -11 3 -14 6 -6 3 7 2 16 -1 19 -3 4 -6 -2 -5 -13z"/>
</g>
</svg>
