<svg width="542" height="562" viewBox="0 0 542 562" fill="none" xmlns="http://www.w3.org/2000/svg">
<ellipse cx="271" cy="281" rx="271" ry="281" fill="#252525"/>
<path d="M41.89 370.05C70.62 455.43 145.45 522.4 235.35 535.94C289.023 544.02 339.267 534.89 386.08 508.55C414.3 492.67 440.51 469.62 459.69 444.7C501.243 390.693 519.38 329.297 514.1 260.51C504.22 131.89 401.43 25.61 269.55 26.12C219.03 26.32 168.27 43.71 128.41 74.66C70.1233 119.92 36.9733 179.7 28.96 254C24.7333 293.187 29.0434 331.87 41.89 370.05Z" fill="white" stroke="#88888A" stroke-width="2"/>
<path d="M116.44 465.06C128.107 476.02 140.23 485.553 152.81 493.66C152.95 493.75 153.111 493.804 153.277 493.817C153.444 493.829 153.61 493.799 153.763 493.731C153.915 493.662 154.047 493.557 154.148 493.424C154.249 493.291 154.315 493.135 154.34 492.97C154.507 491.837 154.56 490.697 154.5 489.55C154.36 487.177 154.29 485.97 154.29 485.93C154.17 408.523 154.213 331.117 154.42 253.71C154.44 243.24 155.84 236.62 165.55 232.53C169.183 230.997 171.837 230.217 173.51 230.19C235 229.28 298.49 229.62 367.74 230.04C380.81 230.12 388.03 238.78 388.02 251.21C387.98 331.51 387.983 411.827 388.03 492.16C388.037 493.367 388.55 493.647 389.57 493C407.743 481.593 423.567 468.607 437.04 454.04C532.71 350.57 525.58 184.06 417.49 91.65C375.117 55.43 325.727 37.4033 269.32 37.57C154 37.91 60.66 127.05 42.17 238.33C28.26 322.01 54.2 406.61 116.44 465.06Z" fill="white" stroke="#808182" stroke-width="2"/>
<path d="M206.64 282.66L206.6 517.2C206.6 517.423 206.675 517.64 206.813 517.816C206.951 517.992 207.143 518.116 207.36 518.17L225.74 522.7C225.887 522.736 226.041 522.739 226.189 522.707C226.338 522.675 226.477 522.61 226.596 522.517C226.716 522.423 226.812 522.304 226.879 522.168C226.945 522.031 226.98 521.882 226.98 521.73C227.007 443.59 227.053 365.45 227.12 287.31C227.12 284.157 227.97 281.777 229.67 280.17C233.577 276.457 237.463 272.667 241.33 268.8C242.243 267.893 242.7 268.083 242.7 269.37L242.89 524.92C242.889 525.169 242.984 525.41 243.154 525.593C243.325 525.777 243.559 525.89 243.81 525.91L261.87 527.29C262.007 527.3 262.145 527.281 262.274 527.236C262.404 527.19 262.523 527.119 262.623 527.026C262.723 526.933 262.803 526.821 262.858 526.696C262.913 526.571 262.94 526.436 262.94 526.3C263.08 499.8 263.067 473.283 262.9 446.75C262.56 393.2 262.96 339.62 263.02 286.06C263.02 284.193 263.363 282.423 264.05 280.75C265.997 275.99 268.1 271.29 270.36 266.65C270.987 265.357 271.59 265.367 272.17 266.68L279.62 283.48C279.687 283.627 279.717 283.78 279.71 283.94C279.09 296.76 279.47 312.21 279.48 322.38C279.507 390.367 279.51 458.313 279.49 526.22C279.489 526.358 279.518 526.494 279.573 526.621C279.629 526.747 279.711 526.861 279.814 526.954C279.916 527.047 280.037 527.118 280.169 527.162C280.301 527.206 280.441 527.223 280.58 527.21L298.72 525.64C298.971 525.617 299.204 525.501 299.373 525.313C299.542 525.126 299.634 524.882 299.63 524.63C299.45 497.657 299.423 470.51 299.55 443.19C299.66 418.09 299.36 392.64 299.45 369.33C299.563 336.177 299.683 302.877 299.81 269.43C299.817 268.137 300.273 267.95 301.18 268.87C304.307 272.023 307.463 275.213 310.65 278.44C312.45 280.26 315.24 283.99 315.25 286C315.543 364.587 315.61 443.18 315.45 521.78C315.45 521.933 315.484 522.084 315.552 522.221C315.619 522.358 315.716 522.478 315.837 522.572C315.958 522.665 316.098 522.73 316.248 522.761C316.397 522.792 316.552 522.788 316.7 522.75L335 517.99C335.215 517.933 335.406 517.806 335.541 517.631C335.677 517.456 335.75 517.241 335.75 517.02V283.12C335.75 281.48 336.323 281.247 337.47 282.42L351.47 296.79C351.649 296.975 351.75 297.226 351.75 297.49V511.11C351.75 511.279 351.794 511.444 351.875 511.592C351.957 511.739 352.075 511.864 352.217 511.953C352.36 512.043 352.523 512.096 352.691 512.105C352.86 512.115 353.028 512.083 353.18 512.01L371.93 503.08C372.101 502.999 372.245 502.87 372.346 502.709C372.447 502.548 372.5 502.361 372.5 502.17V245.93C372.5 245.665 372.395 245.41 372.207 245.223C372.02 245.035 371.765 244.93 371.5 244.93L171 245.03C170.735 245.03 170.48 245.135 170.293 245.323C170.105 245.51 170 245.765 170 246.03V502.52C170 502.711 170.054 502.899 170.157 503.06C170.26 503.221 170.406 503.35 170.58 503.43L189.48 512.07C189.633 512.141 189.802 512.172 189.971 512.16C190.139 512.148 190.302 512.094 190.444 512.002C190.586 511.91 190.702 511.784 190.782 511.635C190.861 511.486 190.902 511.319 190.9 511.15C190.42 441.55 190.373 372.323 190.76 303.47C190.77 301.77 190.43 299.32 190.88 297.06C190.919 296.87 191.009 296.697 191.14 296.56L205.26 282.1C206.18 281.16 206.64 281.347 206.64 282.66Z" fill="black" stroke="#808182" stroke-width="2"/>
<path d="M197.29 162.34C244.977 162.56 292.663 162.593 340.35 162.44C347.61 162.42 356.46 161.17 363.38 163.8C364.627 164.28 365.803 164.83 366.91 165.45C368.257 166.203 368.633 165.867 368.04 164.44C364.58 156.127 360.347 148.273 355.34 140.88C315.73 82.4 233.45 79.21 190.59 135.68C183.877 144.527 178.427 154.113 174.24 164.44C173.72 165.72 174.083 166.06 175.33 165.46C178.603 163.873 182.023 162.877 185.59 162.47C186.61 162.35 190.51 162.307 197.29 162.34Z" fill="black" stroke="#808182" stroke-width="2"/>
<path d="M182 189.68C240.95 189.71 294.02 189.55 358.91 189.78C363.403 189.793 366.74 190.02 368.92 190.46C371.713 191.027 374.423 191.91 377.05 193.11C378.517 193.777 378.967 193.353 378.4 191.84C375.52 184.207 370.487 179.16 363.3 176.7C360.367 175.693 355.617 175.173 349.05 175.14C297.457 174.873 245.867 174.917 194.28 175.27C182.08 175.35 174.7 175.98 168.03 185.69C166.543 187.857 165.253 190.137 164.16 192.53C163.527 193.917 163.89 194.263 165.25 193.57C170.37 190.97 175.953 189.673 182 189.68Z" fill="black" stroke="#808182" stroke-width="2"/>
<path d="M368.36 217.06C373.73 217.06 378.59 218 383.19 219.84C384.737 220.46 385.163 220.013 384.47 218.5C379.637 207.92 371.893 202.63 361.24 202.63C351.66 202.623 342.08 202.5 332.5 202.26C332.307 202.253 331.99 202.327 331.55 202.48C331.377 202.54 331.193 202.57 331 202.57C281.273 202.51 231.54 202.553 181.8 202.7C169.747 202.733 161.88 208.25 158.2 219.25C157.72 220.69 158.17 221.1 159.55 220.48C162.537 219.147 165.63 218.193 168.83 217.62C171.07 217.22 174.697 217.02 179.71 217.02C242.59 216.967 305.473 216.98 368.36 217.06Z" fill="black" stroke="#808182" stroke-width="2"/>
</svg>
